<?xml version="1.0" standalone="no"?>
<!DOCTYPE svg PUBLIC "-//W3C//DTD SVG 20010904//EN"
 "http://www.w3.org/TR/2001/REC-SVG-20010904/DTD/svg10.dtd">
<svg version="1.0" xmlns="http://www.w3.org/2000/svg"
 width="1011.000000pt" height="1280.000000pt" viewBox="0 0 1011.000000 1280.000000"
 preserveAspectRatio="xMidYMid meet">
<metadata>
Created by potrace 1.15, written by Peter Selinger 2001-2017
</metadata>
<g transform="translate(0.000000,1280.000000) scale(0.100000,-0.100000)"
fill="#000000" stroke="none">
<path d="M0 6440 l0 -6360 550 0 550 0 2 178 3 177 135 3 c120 3 378 -13 389
-24 4 -4 -27 -245 -35 -276 -4 -15 1 -18 28 -18 l34 0 17 113 c9 62 17 125 17
140 0 33 7 33 96 6 74 -23 144 -56 264 -124 94 -54 184 -84 278 -92 61 -5 72
-9 72 -24 0 -28 56 -26 63 1 5 18 14 20 84 20 43 0 177 9 298 20 121 11 285
20 365 20 l145 0 18 -50 18 -51 30 18 c31 18 35 28 19 38 -5 3 -10 17 -10 29
0 22 5 24 88 30 84 7 353 40 420 52 l32 6 0 -76 0 -76 30 0 30 0 0 79 0 78 41
7 c23 4 162 18 309 31 257 24 382 38 444 51 l29 6 -6 -126 -7 -126 29 0 c35 0
37 7 47 153 4 59 8 107 9 107 1 0 49 7 107 15 158 22 623 75 659 75 l32 0 -7
-118 c-7 -121 4 -216 27 -239 9 -9 17 -8 35 5 20 15 21 21 12 48 -6 17 -9 91
-8 175 l3 144 170 22 c94 12 211 22 261 22 l91 1 7 -142 c3 -79 12 -172 19
-208 11 -56 15 -65 32 -62 42 6 42 7 29 89 -6 43 -15 134 -19 202 l-8 124 149
-7 c82 -3 258 -9 392 -12 216 -6 242 -8 242 -23 0 -9 -11 -80 -24 -156 -40
-233 -40 -215 -3 -215 l33 0 27 173 c16 94 30 179 33 188 4 14 39 15 307 15
166 -1 329 1 362 3 l60 5 -1 -55 c-1 -30 -16 -112 -34 -182 -19 -74 -29 -132
-24 -137 5 -4 20 -10 33 -12 23 -3 26 2 58 131 18 74 34 163 35 197 l3 63 35
5 c73 12 405 36 493 36 50 0 149 7 220 16 71 8 131 14 133 11 2 -2 -5 -33 -15
-68 -11 -35 -32 -113 -46 -174 -14 -60 -37 -129 -52 -154 l-26 -44 24 -18 c24
-18 24 -18 45 7 26 31 59 125 79 224 24 115 67 239 85 245 48 15 246 20 427
10 111 -6 204 -13 206 -15 3 -3 33 -135 67 -295 35 -160 64 -291 65 -292 2 -3
348 116 352 121 3 3 -376 1713 -526 2376 -1183 5226 -1982 8352 -2398 9385
-107 266 -159 342 -263 389 -473 212 -2283 343 -5307 382 l-513 7 0 68 0 69
-550 0 -550 0 0 -6360z m1827 5766 c3 -2 -2 -86 -10 -186 -15 -198 -14 -194
-80 -205 -20 -4 -59 -22 -85 -41 -100 -72 -126 -86 -199 -105 -57 -14 -110
-19 -215 -19 l-138 0 0 287 0 286 362 -6 c198 -4 363 -9 365 -11z m686 -12
l217 -6 0 -236 0 -235 -67 7 c-36 4 -133 23 -214 42 -202 47 -323 64 -461 64
-116 0 -118 0 -118 23 0 40 22 332 26 346 4 11 40 12 202 7 108 -3 295 -9 415
-12z m705 -20 l252 -6 0 -162 c0 -88 3 -199 7 -245 l6 -84 -24 6 c-139 39
-232 51 -382 50 -87 0 -187 -4 -222 -8 l-65 -7 0 237 0 237 88 -6 c48 -3 201
-8 340 -12z m1070 -39 c9 -3 12 -86 12 -370 0 -201 -2 -365 -4 -365 -10 0
-176 58 -381 133 -126 46 -263 94 -302 106 l-73 22 0 252 0 252 367 -13 c203
-7 374 -15 381 -17z m541 -25 c194 -10 355 -21 356 -22 9 -10 25 -230 25 -342
0 -123 -22 -352 -36 -365 -9 -9 -755 -7 -786 2 l-28 7 0 370 0 370 58 0 c31 0
216 -9 411 -20z m646 -40 c203 -13 344 -26 349 -31 2 -2 6 -139 7 -303 l4
-300 -160 -22 c-88 -12 -220 -24 -294 -26 l-133 -3 5 45 c29 261 31 295 19
454 -7 89 -15 171 -18 184 -6 20 -3 21 22 17 16 -2 106 -9 199 -15z m675 -61
c192 -21 449 -64 463 -78 6 -6 -11 -511 -18 -519 -1 -2 -31 2 -66 8 -35 7
-190 14 -345 17 l-281 6 -7 288 c-4 159 -5 293 -1 298 3 5 20 8 38 5 17 -2
115 -13 217 -25z m570 -121 c33 -35 115 -207 180 -378 l59 -155 -65 -3 c-43
-2 -91 4 -144 19 l-80 21 0 117 c0 174 12 401 21 401 5 0 18 -10 29 -22z
m-4505 -124 c55 -9 165 -31 245 -49 80 -18 173 -36 208 -40 l62 -7 0 -289 0
-289 -38 0 c-64 0 -128 -25 -201 -79 -113 -84 -171 -95 -354 -67 -50 8 -126
18 -169 21 -89 8 -80 -9 -99 190 -13 131 -17 604 -6 622 9 15 219 7 352 -13z
m-423 -177 c-4 -170 5 -369 24 -552 l6 -60 -163 -2 c-96 -1 -231 -10 -324 -22
-88 -12 -177 -21 -197 -21 l-38 0 0 335 0 335 123 0 c207 0 311 27 418 107 54
41 115 71 144 73 7 0 9 -64 7 -193z m1473 88 c54 -8 125 -22 157 -31 l58 -17
0 -81 c0 -85 17 -387 25 -445 l4 -34 -202 6 c-240 8 -497 24 -506 32 -3 4 -7
132 -9 285 l-4 279 33 5 c100 17 332 18 444 1z m333 -82 c15 -3 144 -48 287
-101 143 -52 295 -105 338 -119 l77 -24 0 -102 c0 -56 3 -140 7 -186 l6 -84
-29 6 c-257 57 -328 68 -513 77 -106 5 -195 10 -196 12 -3 3 -19 234 -30 432
-5 98 -4 108 11 102 9 -3 28 -9 42 -13z m2847 -213 c61 -6 119 -13 131 -16 20
-5 21 -13 27 -217 6 -185 21 -351 42 -452 7 -30 6 -31 -62 -53 -150 -49 -230
-52 -468 -21 -88 11 -161 22 -161 22 -1 1 -7 90 -13 197 -7 107 -18 275 -24
372 l-12 177 30 3 c62 6 404 -2 510 -12z m-605 -2 c0 -7 9 -141 20 -298 11
-157 20 -316 20 -354 l0 -68 -37 6 c-99 18 -658 128 -661 131 -3 3 45 460 54
511 l6 31 171 7 c95 4 224 15 287 25 145 24 140 23 140 9z m-1021 -52 l353 0
-5 -45 c-3 -25 -16 -142 -28 -258 -17 -155 -26 -213 -36 -213 -42 0 -445 76
-569 107 l-149 38 -6 40 c-4 22 -10 109 -14 193 l-7 153 53 -8 c30 -4 213 -8
408 -7z m1917 -1 c27 -9 92 -19 145 -22 l96 -6 15 -46 c60 -180 138 -427 138
-436 0 -6 -41 -10 -113 -11 -124 0 -172 -12 -220 -54 -37 -31 -77 -54 -83 -47
-11 11 -34 190 -39 302 -13 284 -13 335 0 335 6 0 34 -7 61 -15z m-3992 -357
c9 -107 30 -273 67 -523 16 -110 29 -210 29 -221 0 -19 -8 -23 -57 -29 -32 -4
-105 -18 -163 -31 -243 -56 -287 -64 -382 -64 l-97 0 -5 33 c-28 195 -34 214
-123 422 -50 115 -113 316 -113 358 0 11 110 3 252 -18 177 -27 237 -16 349
65 98 71 111 76 225 89 7 1 14 -30 18 -81z m426 62 c80 -5 188 -10 241 -10
l97 0 6 -47 c3 -27 8 -227 12 -447 7 -387 6 -398 -12 -393 -108 33 -416 77
-536 77 l-67 0 -6 33 c-27 161 -86 618 -99 761 l-4 49 112 -7 c61 -4 176 -11
256 -16z m845 -41 c66 -11 161 -30 210 -42 l90 -23 8 -60 c4 -32 25 -187 47
-344 47 -332 61 -490 44 -490 -6 0 -36 5 -65 10 -30 6 -171 15 -314 20 -218 8
-274 13 -347 32 l-88 23 -4 335 c-3 184 -8 388 -12 454 l-7 118 159 -6 c87 -4
213 -16 279 -27z m-2179 -86 c29 -138 63 -245 123 -384 74 -174 97 -250 107
-348 8 -73 10 -73 -119 -36 -48 14 -126 36 -174 50 -49 14 -211 50 -362 80
-150 31 -282 60 -292 66 -18 9 -19 23 -17 277 l3 267 105 13 c58 7 157 18 220
26 63 8 179 14 257 15 l143 1 6 -27z m2708 -38 c75 -19 232 -50 349 -70 116
-20 212 -37 214 -38 8 -9 -101 -745 -125 -838 l-7 -27 -240 57 -240 56 -12
135 c-6 74 -27 245 -47 380 -54 383 -54 380 -41 380 7 0 73 -16 149 -35z
m2588 -114 c21 -8 32 -38 90 -237 108 -368 151 -525 145 -530 -11 -11 -459
-104 -502 -104 -9 0 -14 53 -18 203 -7 231 -20 305 -78 450 -21 53 -39 101
-39 106 0 4 21 22 48 39 26 17 57 39 70 48 13 10 40 21 60 25 54 10 197 10
224 0z m-1582 -80 c173 -34 321 -63 329 -66 12 -5 13 -54 8 -306 -3 -165 -7
-302 -9 -304 -1 -2 -77 -8 -168 -14 -171 -12 -224 -22 -349 -65 -84 -29 -180
-43 -260 -38 l-53 4 6 62 c4 33 18 122 31 196 30 168 60 363 75 499 l13 103
31 -5 c17 -3 173 -33 346 -66z m1149 -134 c66 -162 73 -201 78 -443 l5 -221
-80 -6 c-113 -9 -214 5 -414 57 -95 25 -198 48 -228 51 -30 3 -68 8 -85 10
l-30 5 3 303 3 303 117 -17 c255 -39 374 -35 518 15 38 13 71 24 74 25 3 0 20
-37 39 -82z m-5284 -323 c154 -31 345 -76 425 -99 80 -24 165 -47 190 -52 l45
-9 3 -94 c1 -52 -1 -153 -5 -225 l-8 -130 -90 -7 c-50 -4 -171 -27 -273 -52
-221 -55 -378 -78 -503 -74 l-94 3 -3 403 c-2 381 -1 403 15 398 10 -3 144
-31 298 -62z m1757 -69 c121 -14 343 -57 354 -68 6 -6 -10 -313 -27 -534 l-12
-142 -45 -7 c-73 -11 -245 4 -396 34 l-140 27 5 65 c2 36 4 194 4 353 l0 287
65 0 c36 0 122 -7 192 -15z m-318 -87 c11 -163 0 -568 -17 -584 -5 -5 -258 47
-422 87 -66 16 -158 32 -204 36 l-84 6 7 75 c3 41 6 141 6 222 l0 147 128 6
c90 4 158 13 232 32 136 34 277 63 316 64 l31 1 7 -92z m861 -23 c46 -11 158
-19 330 -26 143 -5 287 -14 320 -21 l60 -13 -2 -200 c-1 -165 -23 -438 -36
-451 -1 -2 -30 3 -63 11 -214 50 -495 80 -656 71 l-118 -7 5 38 c9 68 25 295
31 461 l7 164 26 -6 c14 -3 58 -12 96 -21z m1051 -144 l207 -48 -1 -249 c-1
-137 2 -283 7 -324 4 -41 6 -77 4 -79 -5 -7 -126 17 -323 65 -102 24 -190 46
-196 48 -7 3 -6 31 3 92 7 49 16 195 19 325 l7 237 33 -9 c18 -5 126 -31 240
-58z m1109 -43 c-3 -51 -13 -185 -22 -298 -9 -119 -13 -252 -10 -318 l5 -114
-51 7 c-29 3 -90 13 -137 22 -53 9 -183 18 -342 22 -141 3 -259 8 -261 11 -19
18 -33 425 -21 572 l7 76 121 4 c102 4 135 10 211 36 157 54 228 65 448 70
l59 2 -7 -92z m189 77 c33 -4 114 -22 181 -40 211 -58 270 -68 409 -67 l129 1
-6 -182 c-7 -182 -32 -465 -42 -476 -4 -3 -95 -9 -203 -13 -108 -4 -289 -12
-401 -17 -113 -6 -207 -8 -210 -5 -18 18 -18 192 -1 429 11 143 20 285 20 316
0 64 5 71 40 65 14 -3 52 -8 84 -11z m1330 -12 c3 -10 34 -128 70 -263 59
-225 65 -256 70 -379 l6 -134 -177 7 c-98 3 -264 9 -370 13 -132 4 -190 9
-187 17 7 21 33 352 40 501 l6 151 102 17 c55 10 169 33 251 52 178 40 182 40
189 18z m-5338 -440 c-16 -193 -26 -411 -26 -563 l0 -165 -238 0 c-178 -1
-282 -6 -417 -22 -99 -12 -200 -23 -225 -25 l-45 -3 -3 361 -2 361 147 6 c178
8 225 15 458 72 213 52 212 52 294 54 l63 1 -6 -77z m359 37 c72 -17 192 -44
268 -60 77 -16 141 -31 144 -34 3 -2 -9 -107 -26 -233 -16 -125 -33 -253 -36
-284 l-7 -56 -80 -53 c-89 -60 -163 -89 -222 -90 -34 0 -222 20 -331 36 l-31
4 3 188 c2 103 8 285 14 406 l12 219 81 -6 c45 -4 140 -20 211 -37z m914 -165
l154 -4 4 -88 c5 -117 25 -213 67 -324 l34 -91 -87 6 c-314 21 -479 28 -571
22 l-106 -6 37 272 c20 150 37 273 38 274 1 0 63 -12 139 -28 104 -22 174 -30
291 -33z m771 -20 c156 -25 266 -48 276 -58 3 -3 -6 -91 -20 -197 -14 -105
-26 -203 -26 -219 0 -15 -2 -30 -5 -33 -3 -2 -33 -1 -68 4 -35 5 -185 12 -332
16 l-268 7 -38 95 c-42 106 -69 238 -69 341 l0 68 48 4 c105 10 350 -3 502
-28z m779 -170 c62 -13 115 -25 116 -27 1 -2 14 -97 29 -213 15 -115 28 -220
30 -232 2 -15 -2 -23 -12 -23 -8 0 -119 24 -246 54 -127 30 -270 62 -318 72
-49 9 -88 22 -88 28 0 6 9 81 20 166 11 85 22 178 26 205 3 28 7 55 9 61 2 8
56 -2 162 -28 87 -22 209 -50 272 -63z m511 -40 c125 -3 232 -12 329 -28 l144
-23 17 -54 c9 -30 34 -95 55 -145 41 -100 64 -206 65 -306 l0 -65 -152 28
c-172 32 -522 91 -643 108 l-81 12 -28 223 c-15 123 -30 233 -33 243 -4 18 1
19 69 16 40 -2 156 -6 258 -9z m1340 -21 c0 -9 -11 -102 -24 -207 -14 -106
-28 -261 -32 -344 -3 -84 -9 -153 -13 -153 -21 1 -300 43 -425 64 -82 14 -152
26 -156 26 -4 0 -12 56 -18 124 -12 129 -23 172 -92 350 -23 59 -39 110 -37
113 5 4 228 17 582 32 105 4 196 9 203 9 6 1 12 -5 12 -14z m636 0 l172 -7 6
-76 c3 -42 9 -155 12 -252 l7 -176 -64 -12 c-47 -8 -79 -21 -121 -51 -137 -96
-390 -162 -563 -145 l-78 7 6 176 c5 148 26 363 53 521 l5 34 197 -6 c108 -4
274 -10 368 -13z m318 -271 l63 -243 -57 0 -57 0 -7 78 c-8 105 -16 441 -10
422 2 -8 33 -124 68 -257z m-4369 -18 c132 -8 252 -15 267 -15 33 0 43 -28 58
-155 11 -100 13 -552 3 -659 l-6 -68 -166 5 c-148 5 -197 11 -449 60 -156 31
-286 58 -288 60 -5 4 69 671 81 744 5 30 9 32 53 36 105 8 218 6 447 -8z m825
-26 c91 -5 168 -13 171 -17 5 -5 -67 -687 -87 -828 l-4 -30 -78 8 c-42 5 -157
7 -254 6 l-177 -3 1 345 c1 317 -5 424 -28 508 l-6 22 148 0 c82 0 223 -5 314
-11z m-1433 -367 l-41 -364 -31 5 c-16 2 -88 17 -160 32 -107 23 -157 28 -282
29 l-151 1 4 25 c5 31 31 322 40 452 l7 98 36 -5 c223 -29 303 -37 353 -32 64
6 159 46 223 95 22 17 41 30 42 29 1 -1 -17 -166 -40 -365z m1978 276 c121
-28 253 -58 294 -67 91 -19 87 -11 97 -230 7 -161 -11 -629 -25 -644 -5 -4
-95 12 -202 37 -226 52 -497 106 -535 106 l-27 0 7 79 c3 44 24 235 46 425 22
190 40 349 40 352 0 10 68 -3 305 -58z m-2660 1 c8 -9 -40 -568 -51 -578 -5
-5 -217 -54 -394 -92 -68 -15 -150 -22 -288 -26 l-192 -6 2 329 3 329 40 3
c35 2 361 35 455 46 51 6 418 1 425 -5z m3276 -124 c249 -38 693 -118 702
-126 8 -6 -10 -769 -18 -777 -2 -2 -36 1 -77 7 -40 7 -206 16 -368 21 -162 5
-323 14 -358 20 l-62 12 7 122 c5 66 8 262 8 434 0 171 1 312 1 312 1 0 75
-11 165 -25z m2264 -90 c7 -54 -9 -607 -21 -737 l-7 -67 -221 1 c-122 0 -298
-3 -391 -7 l-171 -7 -1 178 c-1 99 -5 249 -9 334 l-6 156 133 0 c103 0 154 5
219 22 119 29 250 83 308 126 44 32 97 52 144 55 13 1 18 -11 23 -54z m209 -7
c50 -186 203 -804 201 -808 -2 -3 -85 -3 -186 0 l-183 5 2 45 c16 299 22 457
22 623 l0 197 64 0 64 0 16 -62z m-1578 -58 c107 -19 328 -53 430 -65 l51 -6
6 -241 c4 -133 7 -285 7 -338 l0 -97 -43 -6 c-77 -11 -572 -19 -584 -10 -10 7
-11 56 -3 229 5 120 10 294 10 387 0 92 4 167 8 167 5 0 58 -9 118 -20z
m-3883 -350 c51 -6 148 -23 215 -38 l124 -27 1 -328 c2 -321 2 -327 -18 -327
-11 0 -76 7 -145 15 -190 22 -346 28 -430 17 -41 -6 -76 -9 -78 -7 -6 5 17
333 36 525 l17 165 30 6 c48 10 149 10 248 -1z m-343 -17 c0 -5 -7 -72 -15
-149 -8 -78 -21 -235 -29 -349 -8 -114 -16 -209 -18 -210 -2 -2 -52 -36 -113
-76 -181 -120 -321 -161 -560 -163 l-130 -1 -3 416 -2 416 152 7 c189 8 305
25 518 75 173 41 200 46 200 34z m1065 -124 c242 -47 288 -52 439 -57 l169 -4
-7 -92 c-3 -50 -6 -189 -7 -308 l-1 -218 -23 0 c-12 0 -103 14 -203 30 -276
46 -324 52 -507 59 l-170 6 -7 160 c-4 88 -5 233 -2 323 6 161 7 164 28 158
11 -3 143 -28 291 -57z m1166 -63 c14 -6 17 -50 23 -348 4 -187 5 -343 2 -345
-2 -3 -62 5 -133 16 -70 11 -173 25 -228 31 -55 6 -117 13 -137 16 l-38 6 0
132 c0 73 3 214 7 314 5 153 9 182 22 186 23 7 463 0 482 -8z m339 -57 c135
-27 501 -110 508 -114 7 -6 -72 -623 -81 -631 -4 -4 -430 52 -589 77 l-76 12
-6 121 c-13 265 -18 515 -11 546 l7 32 51 -7 c29 -4 117 -20 197 -36z m640
-140 c25 -5 200 -16 390 -24 190 -8 360 -18 378 -21 l32 -6 0 -293 0 -293
-112 -7 c-219 -13 -618 -11 -715 4 -50 7 -97 17 -104 21 -10 7 -8 41 9 167 12
87 29 227 38 311 11 91 22 152 28 152 6 -1 31 -5 56 -11z m2350 -81 c0 -42
-50 -601 -54 -605 -8 -9 -723 49 -772 62 -7 2 -5 43 7 132 10 70 24 199 30
285 l13 157 110 4 c61 1 236 4 389 5 l277 2 0 -42z m-852 -103 c-4 -66 -17
-188 -28 -271 -11 -84 -20 -155 -20 -158 0 -3 -66 -6 -147 -6 -82 0 -213 -5
-293 -10 -79 -5 -146 -7 -148 -5 -3 2 -1 130 3 285 l7 280 167 1 c91 1 231 4
311 8 80 3 148 4 151 1 3 -3 2 -59 -3 -125z m1242 126 l74 -6 81 -328 c45
-180 79 -330 76 -331 -12 -7 -218 -19 -301 -18 -75 1 -294 32 -304 43 -2 2 9
141 25 309 15 168 28 313 29 323 0 15 12 17 123 16 67 -1 156 -4 197 -8z
m-5480 -292 c118 -12 216 -23 218 -24 8 -7 2 -538 -8 -675 -11 -166 -38 -441
-43 -447 -5 -4 -633 16 -692 22 l-50 6 3 42 c2 23 19 191 39 372 19 182 42
413 51 515 l17 185 65 11 c97 18 164 16 400 -7z m650 -44 c69 -9 204 -29 302
-45 97 -17 188 -30 203 -30 l28 0 -6 -467 c-3 -258 -9 -480 -12 -494 l-7 -26
-241 -6 c-151 -4 -270 -12 -317 -22 -78 -16 -328 -32 -352 -23 -11 5 -11 32 3
174 26 259 41 560 37 767 l-3 187 120 0 c66 0 177 -7 245 -15z m-1200 -195
c-10 -107 -28 -276 -39 -375 -11 -99 -25 -234 -31 -300 -6 -66 -13 -138 -16
-161 l-5 -41 -222 -6 c-122 -4 -279 -10 -349 -13 l-128 -7 0 436 0 437 93 0
c181 0 366 34 484 89 34 16 98 54 144 85 45 31 83 55 85 53 2 -1 -6 -90 -16
-197z m1960 90 c52 -6 159 -20 238 -32 l142 -22 1 -45 c4 -256 -24 -738 -44
-757 -20 -19 -400 -94 -476 -94 l-43 0 6 98 c3 53 9 271 12 484 l6 386 32 -4
c17 -2 74 -8 126 -14z m528 -80 c27 -5 168 -25 313 -45 145 -20 265 -38 267
-40 3 -2 -1 -46 -7 -97 -7 -51 -15 -177 -18 -280 -3 -104 -9 -188 -12 -188
-40 0 -288 -39 -450 -71 -112 -22 -205 -39 -206 -37 -2 2 3 73 11 158 7 85 16
257 20 383 5 166 10 227 19 227 7 0 35 -4 63 -10z m800 -116 c111 -16 153 -17
460 -7 185 5 338 9 339 8 2 -1 0 -112 -4 -248 l-6 -246 -88 -16 c-185 -34
-254 -37 -536 -24 -150 6 -291 9 -314 6 l-41 -5 6 161 c7 156 21 326 32 375 3
13 10 22 17 19 7 -2 67 -13 135 -23z m1442 20 c0 -12 -61 -370 -66 -385 -3
-11 -25 -21 -62 -28 -153 -31 -419 -81 -434 -81 -17 0 -18 18 -18 239 l0 239
93 6 c50 3 108 8 127 9 65 7 360 7 360 1z m659 -53 c101 -6 185 -12 188 -14 4
-5 -27 -349 -32 -355 -2 -2 -52 8 -112 22 -59 14 -137 30 -173 36 -92 14 -361
11 -450 -5 -41 -7 -75 -12 -76 -12 -1 2 64 381 65 383 1 0 92 -10 204 -23 111
-12 285 -27 386 -32z m494 -61 c54 -7 128 -6 233 1 85 6 158 9 161 5 5 -5 92
-349 93 -368 0 -12 -430 -9 -535 2 -49 5 -121 15 -159 22 l-68 12 6 45 c3 25
10 102 16 171 7 69 13 130 15 136 2 8 25 8 82 -2 43 -8 113 -18 156 -24z
m-638 -301 c39 -5 121 -22 183 -36 l112 -27 -5 -45 c-41 -349 -65 -561 -65
-566 0 -3 -82 -5 -183 -5 -195 0 -338 -14 -561 -55 -76 -14 -140 -24 -142 -23
-1 2 17 107 41 233 25 127 56 291 71 366 l26 136 76 13 c43 6 84 13 92 15 38
7 292 4 355 -6z m-595 -48 c0 -7 -123 -649 -135 -707 -4 -18 -14 -22 -66 -28
-79 -8 -205 -8 -292 1 l-67 6 5 31 c11 68 36 335 42 463 6 124 8 136 27 144
12 4 120 27 241 49 121 23 222 43 224 46 7 7 21 4 21 -5z m1125 -56 c64 -9
191 -14 355 -15 l255 0 24 -103 c13 -57 21 -112 18 -123 -12 -39 -37 -320 -37
-415 l0 -99 -177 0 c-261 0 -386 25 -501 100 -35 22 -89 48 -122 57 -55 15
-59 18 -54 42 5 28 48 400 60 515 l7 68 36 -6 c20 -4 81 -13 136 -21z m-1695
-77 c0 -50 -17 -255 -36 -433 l-17 -160 -156 0 c-204 0 -392 -29 -681 -104
-63 -16 -116 -28 -118 -26 -2 2 2 43 8 92 6 48 14 208 17 354 l6 266 56 6 c31
4 153 2 271 -4 245 -13 403 -7 540 20 52 11 98 19 103 20 4 1 7 -14 7 -31z
m-1044 -262 c-7 -224 -28 -471 -41 -484 -8 -8 -297 -93 -480 -141 -154 -41
-255 -59 -255 -47 0 4 9 67 20 139 29 193 80 597 80 634 0 38 -20 31 242 83
210 41 416 70 432 62 5 -3 6 -107 2 -246z m-741 82 c-3 -18 -21 -159 -40 -313
-41 -321 -59 -443 -69 -453 -4 -4 -118 -9 -253 -11 l-246 -3 7 43 c15 91 65
508 72 591 7 86 7 86 37 92 16 3 46 6 66 7 20 0 117 17 216 38 230 49 217 49
210 9z m-590 -110 c-31 -294 -76 -651 -85 -661 -12 -14 -912 21 -926 36 -1 1
4 40 12 87 7 47 25 177 39 290 14 113 28 215 31 228 4 21 8 22 122 22 64 0
160 7 212 16 141 24 236 31 428 33 l172 1 -5 -52z m-1802 35 c2 -5 -9 -145
-24 -313 -15 -168 -28 -308 -28 -311 -1 -4 -47 -10 -103 -14 -143 -9 -307 -31
-413 -55 -49 -11 -98 -20 -107 -20 -17 0 -18 23 -18 345 0 268 3 347 13 350
37 13 674 29 680 18z m487 -14 c173 -6 317 -12 318 -14 7 -6 -74 -614 -82
-623 -3 -2 -44 1 -93 7 -48 6 -208 11 -355 11 -248 0 -266 1 -262 18 2 9 13
127 24 262 11 135 22 269 26 298 l5 52 52 0 c29 0 194 -5 367 -11z m6129 -229
c22 -91 39 -165 38 -166 -1 -1 -24 -4 -52 -5 l-49 -3 2 89 c3 112 13 257 18
252 2 -2 21 -77 43 -167z m-1059 -62 c0 -7 -15 -143 -34 -303 -19 -159 -37
-319 -41 -355 -13 -142 -12 -138 -58 -144 -446 -53 -482 -50 -675 65 -29 17
-73 37 -99 43 l-46 12 2 74 c4 150 48 510 63 526 15 14 339 71 478 83 159 14
410 13 410 -1z m126 -15 c27 -9 75 -34 108 -55 115 -74 247 -100 510 -102
l178 -1 -6 -70 c-4 -38 -14 -108 -22 -155 -15 -81 -93 -422 -99 -428 -2 -2
-74 4 -162 14 -101 11 -247 17 -405 18 -241 1 -248 2 -248 21 1 39 79 741 86
763 4 15 1 15 60 -5z m-1570 -100 c-2 -16 -21 -150 -42 -300 l-37 -271 -111
-6 c-61 -3 -274 -8 -474 -11 l-363 -6 5 23 c3 13 17 113 31 223 14 110 30 209
34 220 7 16 41 28 177 62 146 36 327 73 429 86 17 2 103 5 193 6 l164 1 -6
-27z m479 -3 c-19 -99 -55 -439 -55 -529 l0 -26 -220 -3 c-173 -2 -219 0 -215
10 2 7 20 135 40 283 20 149 37 275 39 280 2 6 81 10 210 10 l206 0 -5 -25z
m2156 -375 c43 -181 78 -336 79 -344 0 -12 -32 -13 -196 -9 -107 3 -198 9
-201 12 -4 3 12 86 35 184 45 192 67 310 78 414 l6 67 37 4 c90 10 75 40 162
-328z m-3665 218 c-3 -16 -17 -116 -31 -223 -14 -107 -27 -200 -30 -206 -2 -6
-34 -14 -72 -18 -93 -9 -274 -40 -477 -82 -93 -19 -171 -32 -174 -30 -4 5 46
387 52 393 2 2 40 10 85 18 110 19 171 35 421 109 118 36 219 65 223 65 5 1 6
-11 3 -26z m-3149 -175 c-4 -40 -11 -120 -17 -178 -6 -58 -10 -202 -9 -320 l1
-215 -34 3 c-122 11 -342 78 -434 134 -37 22 -82 45 -100 50 l-34 9 0 249 0
250 23 4 c12 3 65 14 117 25 149 31 287 49 469 60 24 1 24 0 18 -71z m670 60
l115 -12 -6 -30 c-17 -94 -58 -447 -63 -544 -6 -103 -8 -115 -27 -123 -25 -10
-413 -57 -551 -66 l-95 -6 -2 129 c-5 237 6 476 28 627 l6 37 240 0 c133 0
292 -5 355 -12z m422 -38 c113 -5 313 -12 444 -16 234 -6 237 -7 237 -28 0
-11 -11 -100 -24 -196 -14 -96 -27 -198 -31 -226 l-7 -52 -51 -6 c-41 -5 -448
-69 -851 -132 l-38 -6 7 93 c7 106 63 557 70 578 3 7 12 10 22 7 9 -4 109 -11
222 -16z m1232 -203 c-12 -89 -24 -176 -27 -194 -4 -31 -6 -31 -93 -47 -48 -9
-163 -27 -254 -39 -154 -22 -167 -22 -167 -7 0 18 45 367 56 432 l6 38 246 2
c196 2 248 0 250 -10 2 -7 -6 -86 -17 -175z m2279 -515 l0 -418 -115 4 c-63 3
-181 -1 -261 -8 -80 -6 -147 -10 -149 -8 -5 5 38 487 62 690 l17 147 36 4 c19
2 119 4 223 5 l187 2 0 -418z m-514 371 c-12 -75 -35 -292 -56 -533 -11 -135
-23 -255 -25 -266 -4 -17 -15 -23 -57 -28 -29 -4 -154 -27 -278 -52 -196 -39
-247 -46 -397 -51 l-171 -6 -9 79 c-16 152 -7 415 21 639 15 116 29 216 31
223 3 9 63 12 247 13 209 2 603 11 676 17 22 2 23 -1 18 -35z m734 -28 c52
-29 109 -59 125 -65 66 -25 166 -28 335 -9 91 10 183 19 205 19 l40 0 -17
-197 c-9 -109 -19 -289 -24 -401 l-7 -202 -24 -6 c-14 -4 -99 -4 -191 -1 -135
4 -194 10 -307 35 -77 17 -175 36 -217 43 l-78 12 0 420 0 420 32 -7 c18 -3
75 -31 128 -61z m-1744 8 c-41 -199 -68 -686 -48 -833 6 -41 10 -75 9 -77 -2
-1 -66 -7 -142 -12 -77 -6 -194 -22 -260 -36 -66 -14 -162 -34 -212 -44 l-93
-18 0 221 c1 325 17 688 31 697 17 10 464 97 584 113 144 20 138 21 131 -11z
m3209 -73 c61 -7 111 -14 113 -15 2 -2 -8 -47 -22 -101 -35 -138 -63 -286 -71
-369 -13 -142 -13 -144 -48 -150 -197 -32 -400 -72 -527 -105 -85 -22 -163
-40 -174 -40 -17 0 -18 7 -12 138 8 160 33 521 43 606 l6 58 291 -5 c160 -2
341 -10 401 -17z m444 -32 c163 -3 174 -4 181 -23 16 -43 122 -516 117 -522
-3 -3 -39 1 -79 8 -118 20 -247 16 -398 -14 -74 -15 -148 -29 -163 -32 l-28
-5 6 63 c15 146 50 331 96 501 10 38 11 38 52 32 23 -3 120 -6 216 -8z m-4445
-30 c-4 -13 -10 -217 -13 -455 -3 -237 -9 -435 -13 -439 -5 -4 -61 -18 -125
-31 -128 -26 -406 -42 -432 -25 -12 8 -12 30 -2 133 6 68 25 265 41 438 16
172 30 314 32 316 2 2 87 15 190 29 104 15 216 33 250 40 35 8 67 14 71 15 5
1 5 -9 1 -21z m-584 -85 c0 -55 -77 -843 -82 -848 -2 -1 -47 10 -100 26 -146
42 -238 52 -510 53 l-248 1 0 216 c0 119 3 263 6 320 l7 105 151 23 c83 12
286 44 451 71 358 57 325 54 325 33z m-2230 -53 c37 -22 113 -56 169 -75 97
-33 276 -75 320 -75 20 0 21 -5 21 -128 0 -71 3 -225 7 -342 l6 -213 -104 6
c-97 5 -301 33 -449 60 l-65 12 -3 398 c-3 456 -12 423 98 357z m1230 -404 c0
-173 -4 -317 -8 -320 -4 -2 -102 -25 -216 -51 -184 -40 -398 -70 -418 -59 -3
2 -7 86 -7 187 -1 100 -4 253 -7 340 l-7 157 67 0 c61 0 341 28 481 49 33 5
72 9 88 10 l27 1 0 -314z m6255 -22 c49 -8 91 -16 92 -18 1 -1 22 -87 47 -191
l44 -189 -68 -135 c-37 -75 -78 -166 -91 -203 l-24 -68 -113 0 c-132 0 -391
26 -409 42 -7 6 -13 28 -13 48 0 21 -11 121 -25 221 -14 101 -28 242 -32 314
l-6 131 164 31 c189 36 302 40 434 17z m-640 -404 c27 -204 43 -345 41 -347
-2 -2 -79 14 -172 34 -168 37 -170 37 -413 37 l-243 1 7 230 c4 127 9 232 11
234 2 2 20 7 41 11 21 4 101 24 178 44 77 19 226 51 330 69 l190 34 7 -111 c4
-61 15 -167 23 -236z m-1717 276 c1 -2 5 -163 9 -358 6 -344 6 -356 -13 -361
-74 -22 -201 -32 -387 -31 -114 1 -210 4 -213 7 -3 3 8 133 25 289 17 156 33
318 37 360 l7 77 42 6 c92 14 276 23 380 18 60 -2 111 -6 113 -7z m329 -56
c186 -38 336 -53 453 -45 l95 7 -3 -236 c-3 -234 -3 -236 -25 -241 -142 -32
-757 -139 -763 -133 -4 4 -20 689 -16 692 4 5 109 -13 259 -44z m-932 -7 c-3
-21 -19 -173 -35 -338 -17 -165 -33 -309 -35 -320 -4 -19 -13 -20 -192 -21
-162 -2 -298 -13 -494 -40 l-46 -6 -7 113 c-10 165 -24 289 -48 412 -11 59
-19 109 -17 111 2 3 81 9 174 14 132 8 221 21 395 55 345 69 312 67 305 20z
m-937 -130 c41 -190 62 -369 62 -518 l0 -93 -47 -7 c-27 -4 -192 -35 -368 -70
-176 -35 -341 -67 -367 -70 l-48 -7 0 138 c0 117 17 364 36 530 l5 40 203 43
c238 51 288 58 418 60 l96 1 10 -47z m-1728 -37 c91 -13 237 -49 271 -67 10
-5 14 -18 12 -36 -2 -15 -19 -167 -37 -336 -22 -208 -37 -311 -45 -316 -26
-16 -230 -36 -361 -35 -74 0 -206 4 -292 8 l-158 8 0 167 c0 91 7 234 15 316
8 83 17 185 20 228 l7 77 236 0 c145 0 274 -6 332 -14z m-655 -233 c-9 -81
-19 -237 -22 -347 l-6 -198 -136 6 c-75 3 -202 8 -282 12 l-147 6 -6 132 c-3
72 -9 218 -12 324 l-7 192 43 0 c66 0 229 27 415 69 l170 38 3 -43 c2 -24 -4
-110 -13 -191z m-1125 178 c96 -16 233 -35 305 -41 71 -6 132 -14 135 -16 6
-7 18 -301 19 -495 l1 -146 -272 -8 c-150 -5 -293 -9 -318 -9 l-45 -1 -3 373
c-1 204 -1 372 1 372 1 0 81 -13 177 -29z m2710 -18 c0 -21 -7 -96 -15 -168
-9 -71 -18 -212 -22 -312 l-6 -181 -111 -6 c-204 -12 -496 -12 -496 -1 0 16
58 563 66 614 l6 43 77 -6 c87 -8 240 6 376 34 128 26 125 26 125 -17z m4934
-208 c15 -66 30 -130 33 -142 5 -23 4 -23 -96 -23 -79 0 -101 3 -101 14 0 32
120 290 130 279 4 -5 19 -62 34 -128z m-1032 -131 l197 -39 3 -110 c2 -60 2
-221 0 -356 l-3 -246 -217 -11 c-119 -6 -287 -19 -372 -28 -97 -11 -177 -14
-212 -10 l-58 7 0 92 c0 143 21 647 29 692 l7 40 59 6 c33 4 130 6 216 4 133
-2 183 -8 351 -41z m-702 -26 c0 -24 -5 -124 -10 -223 -5 -99 -10 -255 -11
-347 -1 -137 -4 -168 -16 -168 -8 0 -49 20 -91 45 -120 68 -172 78 -414 79
l-207 1 -5 30 c-9 53 -28 399 -24 444 l3 45 280 48 c154 26 321 56 370 67 130
28 125 28 125 -21z m1085 -43 c61 -8 174 -15 253 -15 l142 0 0 -89 c0 -179 68
-378 192 -565 21 -32 37 -60 35 -62 -2 -3 -55 0 -118 6 -344 31 -462 40 -536
40 l-83 0 0 350 c0 193 1 350 3 350 1 0 52 -7 112 -15z m776 -358 c42 -186 80
-349 83 -363 6 -24 6 -24 -63 -24 -81 0 -82 1 -154 110 -126 194 -204 436
-183 573 l7 48 116 -3 116 -3 78 -338z m-2703 186 c2 -60 7 -172 13 -251 6
-79 9 -145 7 -148 -8 -7 -388 -24 -556 -24 l-153 0 5 43 c7 47 46 436 46 452
0 6 86 10 253 10 152 1 268 5 292 12 22 6 52 11 66 12 l26 1 1 -107z m-702 65
c-3 -13 -15 -127 -27 -254 l-22 -232 -196 -6 c-182 -6 -372 -20 -448 -33 l-33
-5 0 250 0 250 23 5 c20 5 229 32 317 40 19 2 115 5 213 5 l177 2 -4 -22z
m-792 -286 c0 -133 -3 -244 -6 -248 -4 -3 -87 -21 -185 -39 -303 -56 -556
-102 -594 -108 l-36 -5 -8 238 c-4 132 -4 243 -1 248 3 5 31 12 62 16 32 4
190 33 353 65 163 32 319 63 346 69 28 5 55 9 60 7 6 -1 10 -90 9 -243z m-900
-4 c3 -51 8 -163 10 -248 l5 -156 -187 -23 c-103 -13 -257 -34 -342 -46 -85
-12 -157 -21 -159 -19 -4 4 49 557 55 563 1 2 135 7 296 11 161 3 298 7 305 8
7 1 13 -29 17 -90z m-2214 -35 c0 -60 -7 -222 -17 -360 -19 -288 -7 -263 -120
-237 -135 31 -240 67 -322 111 -47 25 -105 48 -130 52 l-46 6 -3 253 c-2 197
0 253 10 257 12 4 387 20 551 23 l77 2 0 -107z m644 38 c3 -25 8 -175 12 -332
l7 -287 -39 -6 c-182 -28 -572 -51 -589 -34 -4 3 1 102 9 220 9 117 19 278 22
358 l7 145 283 -9 283 -9 5 -46z m880 27 c-2 -18 -16 -145 -30 -283 -14 -137
-26 -251 -28 -252 -3 -4 -705 -103 -727 -103 -15 0 -17 18 -18 168 0 92 -4
241 -8 331 -5 147 -4 164 10 158 8 -3 143 -9 299 -12 222 -5 301 -3 368 8 136
23 140 23 134 -15z m3610 -269 c34 -5 86 -24 116 -40 30 -16 83 -43 118 -60
l62 -31 0 -81 c0 -45 7 -243 16 -440 9 -196 15 -359 12 -362 -5 -5 -299 -22
-549 -30 l-187 -7 -5 499 c-3 274 -9 513 -12 531 l-7 32 188 0 c103 0 215 -5
248 -11z m-490 -61 c3 -35 8 -271 12 -525 l6 -461 -67 -7 c-106 -12 -269 0
-522 36 l-233 33 0 32 c0 85 68 924 76 933 3 3 381 15 636 19 l86 2 6 -62z
m-798 5 c-15 -98 -66 -756 -66 -855 0 -38 -1 -68 -3 -68 -58 0 -695 95 -705
105 -9 8 13 194 52 450 19 127 38 260 41 297 8 77 -1 71 150 87 154 17 168 18
358 19 l179 2 -6 -37z m-752 -115 c-7 -57 -29 -209 -48 -339 -20 -130 -36
-250 -36 -267 0 -16 -3 -44 -6 -62 -6 -29 -9 -31 -39 -26 -17 4 -121 15 -231
26 -223 21 -416 48 -425 58 -4 4 -9 134 -12 288 l-6 281 55 7 c30 3 175 29
322 57 370 70 405 77 423 78 14 1 14 -9 3 -101z m3256 -340 c-1 -348 -8 -540
-21 -552 -2 -2 -105 7 -229 21 -140 15 -292 24 -402 25 l-178 1 0 106 c0 58
-4 189 -9 291 -6 102 -13 249 -16 328 l-7 142 105 0 c57 0 167 7 243 15 181
19 213 21 377 23 l137 2 0 -402z m570 378 c80 -8 179 -18 220 -21 l76 -6 49
-60 c28 -33 65 -87 84 -121 30 -53 35 -73 39 -142 5 -103 -12 -179 -83 -357
-29 -76 -59 -156 -64 -178 -6 -23 -16 -59 -21 -81 l-11 -40 -82 0 c-45 0 -154
11 -242 25 -88 14 -234 30 -323 36 l-164 12 7 31 c4 17 9 233 12 480 l5 449
176 -6 c98 -3 242 -13 322 -21z m494 -43 c3 -10 50 -218 105 -463 56 -245 103
-455 106 -467 5 -20 3 -21 -73 -16 -42 2 -121 0 -174 -4 -85 -8 -98 -7 -98 7
1 8 18 65 39 125 22 61 59 167 84 237 26 74 48 156 52 196 13 127 -23 240
-108 345 l-47 57 54 0 c43 0 56 -4 60 -17z m-5184 -195 c0 -84 3 -210 6 -279
l7 -126 -124 18 c-68 10 -234 23 -368 28 -134 6 -245 12 -247 14 -5 4 13 254
24 347 l7 55 120 18 c90 13 505 69 568 76 4 1 7 -68 7 -151z m-2720 42 c74
-44 219 -93 352 -120 50 -11 92 -21 94 -23 2 -2 -1 -95 -6 -208 -5 -112 -10
-223 -10 -246 l0 -43 -62 0 c-35 0 -162 11 -283 25 -121 14 -223 25 -227 25
-5 0 -8 144 -8 321 l0 321 43 -7 c23 -4 71 -25 107 -45z m1943 -137 c-6 -76
-12 -162 -12 -190 -1 -63 16 -60 -206 -38 -219 21 -335 19 -472 -11 l-33 -6 0
141 c0 77 1 141 3 141 126 20 681 98 702 99 l30 1 -12 -137z m-788 -124 c4
-83 5 -152 3 -153 -21 -17 -160 -102 -197 -120 -97 -50 -270 -91 -405 -97
l-58 -3 1 115 c0 63 4 171 7 242 l7 127 121 1 c67 0 195 9 286 19 91 9 179 18
196 19 l31 1 8 -151z m538 -154 c100 -9 191 -17 202 -20 19 -4 20 -12 20 -267
0 -203 4 -289 18 -378 10 -63 20 -123 23 -132 4 -13 -5 -18 -52 -24 -59 -7
-544 2 -626 12 l-48 6 -2 386 -3 385 31 13 c81 34 198 39 437 19z m714 -45
c131 -12 313 -37 321 -45 3 -3 7 -160 10 -349 l5 -344 -44 -6 c-24 -3 -156 -8
-294 -11 -137 -3 -280 -8 -316 -11 l-66 -6 -17 108 c-26 176 -37 349 -30 509
3 83 7 155 9 160 3 12 251 9 422 -5z m-1238 -483 l1 -269 -57 6 c-120 13 -301
26 -388 27 -49 0 -130 6 -180 12 -86 12 -90 13 -89 37 0 14 9 118 19 232 l19
207 66 6 c235 21 377 65 532 166 l63 40 6 -98 c4 -54 7 -219 8 -366z m1746
413 c61 -8 553 -60 570 -60 2 0 4 -89 5 -197 0 -109 5 -258 10 -332 5 -74 8
-137 5 -139 -2 -2 -109 10 -237 27 -149 20 -275 31 -350 31 l-118 0 0 346 c0
324 1 345 18 340 9 -3 53 -10 97 -16z m800 -99 c128 -20 508 -71 530 -71 8 0
15 -55 23 -167 12 -165 27 -276 58 -421 9 -40 14 -75 12 -77 -3 -3 -83 6 -179
20 -96 14 -263 36 -372 49 -109 13 -201 27 -205 31 -11 11 -21 149 -28 414 -7
247 -7 253 12 248 10 -3 78 -15 149 -26z m-3623 -41 c103 -11 222 -20 264 -20
l76 0 -6 -57 c-3 -32 -13 -132 -22 -223 -9 -91 -18 -167 -20 -169 -2 -2 -42 1
-89 8 -92 13 -315 16 -396 5 l-49 -7 0 240 c0 132 2 242 5 245 3 3 15 4 28 2
12 -2 106 -13 209 -24z m4520 -80 c166 -23 254 -30 375 -30 l158 0 -7 -182
c-6 -159 -33 -487 -40 -493 -2 -2 -30 1 -63 6 -33 5 -136 15 -230 24 -188 17
-339 33 -371 40 -16 4 -24 19 -37 77 -41 179 -67 385 -67 525 l0 74 33 -6 c17
-3 130 -18 249 -35z m1338 -278 c0 -159 -3 -337 -7 -395 l-6 -107 -144 0 c-79
0 -187 5 -241 10 -95 10 -386 50 -388 53 0 1 5 52 12 112 7 61 18 216 25 346
l12 236 246 8 c208 6 432 17 479 23 9 2 12 -62 12 -286z m614 263 c131 -13
241 -27 244 -29 2 -3 -14 -90 -37 -193 -53 -240 -71 -364 -71 -485 l0 -97 -47
-7 c-55 -8 -246 1 -477 24 l-169 17 2 90 c0 50 4 225 6 390 3 165 6 303 5 308
0 16 314 6 544 -18z m784 -69 c95 -15 211 -27 258 -28 l86 -1 -6 -41 c-3 -23
-9 -118 -12 -212 l-7 -171 -101 -7 c-249 -16 -410 -61 -586 -165 -97 -57 -186
-101 -205 -101 -3 0 -5 46 -5 103 0 115 16 224 64 442 18 82 36 166 40 185 l6
35 147 -6 c82 -4 226 -19 321 -33z m772 -22 c11 -3 30 -70 66 -236 29 -128 50
-235 48 -237 -2 -3 -73 3 -157 12 -83 9 -194 20 -244 23 l-93 7 1 141 c0 142
10 270 21 281 17 18 303 25 358 9z m-7870 -324 c36 -6 79 -12 96 -15 l30 -5
-4 -179 c-3 -99 1 -291 7 -426 7 -136 10 -249 8 -251 -2 -3 -34 0 -71 6 -36 6
-155 12 -263 15 l-198 5 0 422 0 423 65 6 c111 10 262 9 330 -1z m430 -50 c91
-6 236 -16 322 -22 l157 -11 -6 -526 c-3 -289 -7 -527 -8 -529 -5 -6 -160 20
-198 34 -23 8 -98 46 -167 83 -120 66 -195 98 -287 121 l-43 11 0 67 c0 37 -5
177 -11 312 -7 142 -9 295 -5 364 l8 118 37 -6 c20 -3 110 -11 201 -16z m2590
-56 c102 -13 199 -27 216 -29 31 -5 31 -6 38 -80 4 -41 22 -199 41 -352 19
-153 35 -296 35 -319 l0 -41 -132 -17 c-73 -9 -227 -25 -343 -36 -115 -10
-241 -22 -279 -26 l-69 -7 7 364 c3 200 9 410 13 466 l6 102 51 4 c83 7 219
-3 416 -29z m-543 -201 c-4 -124 -7 -335 -7 -469 0 -203 -2 -243 -15 -247 -13
-6 -347 -48 -475 -61 l-55 -6 0 263 c0 286 -5 323 -56 440 -31 71 -86 273 -77
282 5 5 396 20 597 23 l94 2 -6 -227z m-1292 196 c87 -7 215 -8 337 -4 l197 7
10 -38 c5 -22 19 -77 30 -122 12 -46 35 -113 51 -149 48 -106 52 -149 51 -534
l-1 -136 -182 -7 c-101 -3 -282 -15 -403 -26 -121 -11 -242 -20 -269 -20 l-49
0 7 438 c3 240 9 476 13 525 l6 87 31 -5 c17 -2 94 -10 171 -16z m2430 -69
c211 -27 357 -47 461 -65 28 -5 33 -11 44 -53 8 -26 29 -82 47 -125 23 -52 37
-104 43 -160 13 -106 13 -237 0 -237 -19 0 -462 -51 -618 -71 -89 -12 -165
-19 -169 -16 -3 3 -7 28 -10 54 -5 52 -70 605 -78 666 -6 46 -28 45 280 7z
m3810 -54 c8 -80 3 -461 -5 -470 -12 -11 -259 -36 -465 -46 -121 -6 -260 -15
-310 -20 -49 -5 -99 -10 -110 -10 -19 0 -20 6 -18 171 l2 171 67 24 c37 13
103 45 148 72 192 117 312 153 571 172 55 4 103 8 107 9 3 0 9 -32 13 -73z
m340 48 c94 -8 186 -19 204 -23 l35 -6 53 -239 c30 -131 52 -241 49 -243 -3
-3 -82 0 -176 7 -157 12 -356 9 -421 -6 l-26 -6 9 69 c5 37 6 159 2 271 l-6
202 53 -5 c30 -2 131 -12 224 -21z m-3305 -104 c207 -20 372 -39 377 -44 2 -2
-4 -50 -12 -107 -8 -57 -15 -131 -15 -165 0 -34 -3 -81 -6 -106 l-6 -45 -107
-7 c-58 -4 -173 -16 -256 -26 -82 -11 -151 -20 -152 -20 -2 0 -3 51 -3 113 0
141 -12 208 -55 306 -18 42 -37 89 -41 105 -7 28 -6 29 27 22 19 -3 131 -15
249 -26z m560 -70 c162 -24 338 -41 497 -47 l172 -6 -5 -61 c-18 -248 -24
-309 -26 -311 -5 -5 -677 15 -737 21 l-54 6 6 123 c6 112 22 251 32 283 3 7
14 10 27 7 13 -3 52 -9 88 -15z m950 -70 c113 -11 267 -20 343 -20 l137 0 0
-169 0 -169 -72 -8 c-83 -9 -564 -8 -619 1 l-35 6 7 67 c4 37 10 122 14 190 4
67 10 122 14 122 3 0 98 -9 211 -20z"/>
</g>
</svg>
